Coordinates
version=1
nRows=16
nColumns=40
inDegrees=yes

Units are S.I. units (second, meters, Newtons, ...)
If the header above contains a line with 'inDegrees', this indicates whether rotational values are in degrees (yes) or radians (no).

endheader
time	pelvis_tilt	pelvis_list	pelvis_rotation	pelvis_tx	pelvis_ty	pelvis_tz	hip_flexion_r	hip_adduction_r	hip_rotation_r	knee_angle_r	knee_angle_r_beta	ankle_angle_r	subtalar_angle_r	mtp_angle_r	hip_flexion_l	hip_adduction_l	hip_rotation_l	knee_angle_l	knee_angle_l_beta	ankle_angle_l	subtalar_angle_l	mtp_angle_l	lumbar_extension	lumbar_bending	lumbar_rotation	arm_flex_r	arm_add_r	arm_rot_r	elbow_flex_r	pro_sup_r	wrist_flex_r	wrist_dev_r	arm_flex_l	arm_add_l	arm_rot_l	elbow_flex_l	pro_sup_l	wrist_flex_l	wrist_dev_l
      4.50000000	     11.87063750	      5.16166916	     -0.56892038	     -0.39538980	      0.92651639	     -0.74959143	     26.16802134	     -5.20998474	     -6.40911589	     72.83233987	      1.27116413	     22.19715643	      0.00000000	      0.00000000	     52.46381025	      0.81932622	     -2.81193844	      9.42241973	      0.16445225	     -9.35154211	      0.00000000	      0.00000000	    -23.23423777	      1.22123661	      2.42194602	     89.94380937	    -15.78963252	     24.18085173	     38.46336537	     83.14188945	      0.00000000	      0.00000000	     89.95308434	    -11.24221775	     22.02545941	     43.92975451	     82.51663180	      0.00000000	      0.00000000
      4.50500000	     11.82238349	      5.16301049	     -0.55438463	     -0.39558519	      0.92597891	     -0.74965075	     26.27733287	     -5.19369077	     -6.37101401	     72.92252322	      1.27273813	     22.28646861	      0.00000000	      0.00000000	     52.53913720	      0.82700924	     -2.79365838	      9.46263617	      0.16515416	     -9.38388549	      0.00000000	      0.00000000	    -23.23856695	      1.21389367	      2.42183449	     89.94401183	    -15.81170721	     24.12774974	     38.52745964	     83.05286330	      0.00000000	      0.00000000	     89.95319408	    -11.21403544	     21.96342252	     43.96033912	     82.66479060	      0.00000000	      0.00000000
      4.51000000	     11.73407575	      5.18489391	     -0.53151629	     -0.39573304	      0.92533170	     -0.74971977	     26.44341760	     -5.19638696	     -6.32635725	     73.04335861	      1.27484710	     22.35207349	      0.00000000	      0.00000000	     52.63363848	      0.85372734	     -2.80678840	      9.45811519	      0.16507525	     -9.34139928	      0.00000000	      0.00000000	    -23.18545703	      1.19646770	      2.39618718	     89.94422872	    -15.83368156	     24.14297448	     38.55123242	     83.15261569	      0.00000000	      0.00000000	     89.95327786	    -11.19756694	     21.95354497	     43.96300704	     82.58509896	      0.00000000	      0.00000000
      4.51500000	     11.69090638	      5.15003808	     -0.49547978	     -0.39585447	      0.92478943	     -0.74971896	     26.53026426	     -5.13395666	     -6.31568850	     73.13084742	      1.27637407	     22.44791334	      0.00000000	      0.00000000	     52.70132348	      0.84878289	     -2.79586014	      9.48807297	      0.16559811	     -9.29455851	      0.00000000	      0.00000000	    -23.17331109	      1.22704974	      2.37975314	     89.94435447	    -15.84361195	     24.13594286	     38.52160823	     83.09118107	      0.00000000	      0.00000000	     89.95327330	    -11.17890523	     21.91962088	     43.96350060	     82.63263393	      0.00000000	      0.00000000
      4.52000000	     11.52246602	      5.25457422	     -0.52234590	     -0.39611537	      0.92399574	     -0.74990394	     26.82928137	     -5.23015947	     -6.20008804	     73.29305902	      1.27920520	     22.48646616	      0.00000000	      0.00000000	     52.90152177	      0.89056381	     -2.92958242	      9.49482282	      0.16571592	     -9.20013508	      0.00000000	      0.00000000	    -23.04386804	      1.11530409	      2.40804136	     89.94437530	    -15.89119044	     24.15820787	     38.54845031	     83.28378612	      0.00000000	      0.00000000	     89.95347762	    -11.12787221	     21.88641578	     44.00175694	     82.41124483	      0.00000000	      0.00000000
      4.52500000	     11.57374152	      5.20306452	     -0.48447899	     -0.39616831	      0.92370602	     -0.74983526	     26.78440914	     -5.15672888	     -6.21993773	     73.33436078	      1.27992605	     22.62438544	      0.00000000	      0.00000000	     52.83204981	      0.88615629	     -2.92122757	      9.47777876	      0.16541845	     -9.10983360	      0.00000000	      0.00000000	    -23.14763040	      1.17550554	      2.34581617	     89.94464578	    -15.84772592	     24.72254441	     38.62022948	     78.83778207	      0.00000000	      0.00000000	     89.95348795	    -11.20308133	     22.34190829	     44.15651019	     78.01530888	      0.00000000	      0.00000000
      4.53000000	     11.48284518	      5.18611856	     -0.51116483	     -0.39636728	      0.92313156	     -0.74985286	     26.95330446	     -5.09260281	     -6.13882345	     73.40922603	      1.28123270	     22.58032841	      0.00000000	      0.00000000	     52.95359809	      0.85411715	     -2.89757595	      9.51609982	      0.16608727	     -9.30591834	      0.00000000	      0.00000000	    -23.11125742	      1.18156491	      2.38124840	     89.94456475	    -15.85162207	     24.07605395	     38.63660212	     83.28036266	      0.00000000	      0.00000000	     89.95377910	    -11.18631305	     21.79562682	     44.10344521	     82.35650181	      0.00000000	      0.00000000
      4.53500000	     11.46931925	      5.17904382	     -0.47157106	     -0.39645979	      0.92268889	     -0.74990864	     27.00459534	     -5.06132804	     -6.10555668	     73.48195815	      1.28250211	     22.65678741	      0.00000000	      0.00000000	     52.98713042	      0.87237357	     -2.91212692	      9.56043889	      0.16686114	     -9.16204792	      0.00000000	      0.00000000	    -23.13366585	      1.19406101	      2.35251868	     89.94470914	    -15.88086364	     24.14913772	     38.64146697	     83.22169485	      0.00000000	      0.00000000	     89.95385743	    -11.17430192	     21.81464572	     44.13163984	     82.25577999	      0.00000000	      0.00000000
      4.54000000	     11.43698091	      5.17229639	     -0.43724288	     -0.39660366	      0.92218900	     -0.74998014	     27.08541589	     -5.04172123	     -6.10607054	     73.55558177	      1.28378709	     22.70861496	      0.00000000	      0.00000000	     53.01361819	      0.89885760	     -2.89206652	      9.50850128	      0.16595465	     -9.23784039	      0.00000000	      0.00000000	    -23.13558655	      1.20143995	      2.35739739	     89.94456447	    -15.89012575	     24.06031661	     38.62812061	     82.60651817	      0.00000000	      0.00000000	     89.95408504	    -11.04766407	     21.61795543	     44.08953619	     81.91501827	      0.00000000	      0.00000000
      4.54500000	     11.42559043	      5.19672718	     -0.47419732	     -0.39670648	      0.92165370	     -0.74995509	     27.16015179	     -5.00437857	     -6.00380205	     73.67905209	      1.28594205	     22.95488166	      0.00000000	      0.00000000	     53.05248319	      0.88357021	     -3.02921820	      9.57734673	      0.16715623	     -9.12244744	      0.00000000	      0.00000000	    -23.15151836	      1.17086758	      2.31262245	     89.94509894	    -15.84188203	     24.71090959	     38.68933924	     78.63070724	      0.00000000	      0.00000000	     89.95396753	    -11.18662673	     22.16007283	     44.25454913	     77.90848435	      0.00000000	      0.00000000
      4.55000000	     11.33370592	      5.14663469	     -0.45264292	     -0.39686474	      0.92108490	     -0.74990375	     27.29139345	     -4.90559347	     -5.98214820	     73.70933838	      1.28647064	     22.94615421	      0.00000000	      0.00000000	     53.18991537	      0.85070697	     -3.01344971	      9.65587572	      0.16852682	     -9.31293977	      0.00000000	      0.00000000	    -23.10472199	      1.20400294	      2.35452965	     89.94505323	    -15.89798362	     24.04612287	     38.65880534	     83.40400146	      0.00000000	      0.00000000	     89.95419697	    -11.11912817	     21.64678335	     44.19580918	     82.10050647	      0.00000000	      0.00000000
      4.55500000	     11.28363018	      5.12392901	     -0.45639180	     -0.39703376	      0.92063615	     -0.74981820	     27.37742767	     -4.82437253	     -5.94838078	     73.74223962	      1.28704488	     23.03033832	      0.00000000	      0.00000000	     53.24621712	      0.82442403	     -3.07258686	      9.65236274	      0.16846551	     -9.40520788	      0.00000000	      0.00000000	    -23.11740366	      1.21796441	      2.34312204	     89.94508105	    -15.86342456	     24.01588724	     38.71059846	     83.16391906	      0.00000000	      0.00000000	     89.95444335	    -11.15047740	     21.55250451	     44.26534985	     82.39053519	      0.00000000	      0.00000000
      4.56000000	     11.23970985	      5.15460583	     -0.44997124	     -0.39717185	      0.92012990	     -0.74981244	     27.47393282	     -4.82048161	     -5.91804527	     73.82307486	      1.28845572	     23.18210086	      0.00000000	      0.00000000	     53.31460787	      0.85181466	     -3.10604601	      9.68315437	      0.16900293	     -9.47034841	      0.00000000	      0.00000000	    -23.10761939	      1.16896561	      2.32703961	     89.94517034	    -15.87250605	     23.96713938	     38.71117790	     83.03388577	      0.00000000	      0.00000000	     89.95455665	    -11.11265735	     21.43912153	     44.30134212	     82.53146701	      0.00000000	      0.00000000
      4.56500000	     11.19257868	      5.16629189	     -0.48891026	     -0.39729116	      0.91959702	     -0.74968917	     27.57769523	     -4.73628122	     -5.79701900	     73.88501132	      1.28953672	     23.32129810	      0.00000000	      0.00000000	     53.37896903	      0.81756495	     -3.16686058	      9.70747572	      0.16942741	     -9.40836532	      0.00000000	      0.00000000	    -23.08893723	      1.12801382	      2.34793392	     89.94518621	    -15.85774301	     23.95989116	     38.68672321	     83.04595530	      0.00000000	      0.00000000	     89.95469602	    -11.11443709	     21.39923007	     44.33933762	     82.53412025	      0.00000000	      0.00000000
      4.57000000	     11.17187519	      5.17176306	     -0.46066186	     -0.39741211	      0.91914138	     -0.74971426	     27.63477193	     -4.69398764	     -5.75843506	     73.93742972	      1.29045159	     23.43084720	      0.00000000	      0.00000000	     53.43409769	      0.83549859	     -3.25523307	      9.72147833	      0.16967181	     -9.24703826	      0.00000000	      0.00000000	    -23.10846915	      1.12865692	      2.29952667	     89.94518463	    -15.80078623	     23.84638745	     38.68508238	     83.19432737	      0.00000000	      0.00000000	     89.95484748	    -11.14594777	     21.38958708	     44.40021404	     82.22347328	      0.00000000	      0.00000000
      4.57500000	     11.12512928	      5.21279525	     -0.44654066	     -0.39748010	      0.91861122	     -0.74970538	     27.73477947	     -4.66906648	     -5.67369231	     74.02262083	      1.29193845	     23.54469978	      0.00000000	      0.00000000	     53.50389283	      0.86909136	     -3.30637441	      9.73326107	      0.16987745	     -9.27514695	      0.00000000	      0.00000000	    -23.09483939	      1.08200587	      2.27027084	     89.94525996	    -15.81533093	     23.81929230	     38.70691720	     83.14573209	      0.00000000	      0.00000000	     89.95495791	    -11.13827702	     21.34954369	     44.42961309	     82.32918006	      0.00000000	      0.00000000
